<?xml version="1.0" encoding="iso-8859-1"?>
<!-- Generator: Adobe Illustrator 19.0.0, SVG Export Plug-In . SVG Version: 6.00 Build 0)  -->
<svg version="1.1" id="Capa_1" xmlns="http://www.w3.org/2000/svg" xmlns:xlink="http://www.w3.org/1999/xlink" x="0px" y="0px"
	 viewBox="0 0 511.957 511.957" style="enable-background:new 0 0 511.957 511.957;" xml:space="preserve">
<g transform="matrix(1.25 0 0 -1.25 0 45)">
	<g>
		<g>
			<g>
				<path style="fill:#FFAC33;" d="M147.911-32.25c0,0,0,22.756,22.756,22.756s22.756-22.756,22.756-22.756v-22.756
					c0,0,0-22.756-22.756-22.756s-22.756,22.756-22.756,22.756V-32.25z"/>
				<path style="fill:#FFAC33;" d="M45.511-157.405c0,0,22.756,0,22.756-22.756s-22.756-22.756-22.756-22.756H22.756
					c0,0-22.756,0-22.756,22.756s22.756,22.756,22.756,22.756H45.511z"/>
				<path style="fill:#FFAC33;" d="M89.566-78.261c0,0,16.088-16.088,0-32.176s-32.176,0-32.176,0L41.29-94.35
					c0,0-16.088,16.088,0,32.188c16.1,16.088,32.188,0,32.188,0L89.566-78.261z"/>
				<path style="fill:#FFAC33;" d="M283.955-110.415c0,0-16.088-16.088-32.176,0s0,32.176,0,32.176l16.088,16.088
					c0,0,16.088,16.088,32.176,0c16.088-16.088,0-32.176,0-32.176L283.955-110.415z"/>
				<path style="fill:#FFAC33;" d="M261.689-180.161c0,50.278-40.755,91.022-91.022,91.022c-50.278,0-91.022-40.744-91.022-91.022
					c0-50.267,40.744-91.022,91.022-91.022C220.934-271.183,261.689-230.428,261.689-180.161"/>
			</g>
			<path style="fill:#E1E8ED;" d="M321.081-155.13c-9.136,0-17.92-1.354-26.214-3.868c-9.808,27.409-36.42,47.104-67.823,47.104
				c-33.667,0-61.85-22.653-69.666-53.191c-8.34,6.167-18.614,9.956-29.878,9.956c-27.5,0-49.778-21.777-49.778-48.64
				c0-6.531,1.354-12.732,3.743-18.421c-4.745,1.297-9.648,2.207-14.802,2.207c-30.549,0-55.319-24.189-55.319-54.044
				c0-29.855,24.769-54.044,55.319-54.044l254.419,0c48.868,0,88.485,38.707,88.485,86.46
				C409.566-193.848,369.948-155.13,321.081-155.13"/>
		</g>
	</g>
</g>
<g>
</g>
<g>
</g>
<g>
</g>
<g>
</g>
<g>
</g>
<g>
</g>
<g>
</g>
<g>
</g>
<g>
</g>
<g>
</g>
<g>
</g>
<g>
</g>
<g>
</g>
<g>
</g>
<g>
</g>
</svg>
