<?xml version="1.0" encoding="iso-8859-1"?>
<!-- Generator: Adobe Illustrator 16.0.0, SVG Export Plug-In . SVG Version: 6.00 Build 0)  -->
<!DOCTYPE svg PUBLIC "-//W3C//DTD SVG 1.1//EN" "http://www.w3.org/Graphics/SVG/1.1/DTD/svg11.dtd">
<svg version="1.1" id="Capa_1" xmlns="http://www.w3.org/2000/svg" xmlns:xlink="http://www.w3.org/1999/xlink" x="0px" y="0px"
	 width="31.785px" height="31.785px" viewBox="0 0 31.785 31.785" style="enable-background:new 0 0 31.785 31.785;"
	 xml:space="preserve">
<g>
	<g>
		<path fill="#BF0603" d="M17.943,8.769c0-0.479-0.389-0.868-0.869-0.868h-2.502c-0.479,0-0.868,0.389-0.868,0.868v2.382h-2.523
			c-0.479,0-0.868,0.389-0.868,0.868v2.501c0,0.479,0.389,0.869,0.868,0.869h2.523v2.523c0,0.479,0.389,0.869,0.868,0.869h2.502
			c0.479,0,0.869-0.391,0.869-0.869V15.39h2.381c0.479,0,0.869-0.39,0.869-0.869V12.02c0-0.479-0.389-0.868-0.869-0.868h-2.381
			V8.769z"/>
		<path fill="#BF0603" d="M15.894,0C8.999,0,3.389,5.608,3.389,12.502c0,9.217,10.913,18.482,11.377,18.872c0.614,0.517,1.5,0.549,2.152,0.081
			c0.468-0.337,11.479-8.38,11.479-18.953C28.396,5.608,22.787,0,15.894,0z M17.31,26.536c-0.751,0.703-1.925,0.677-2.644-0.06
			c-3.296-3.367-7.77-9.041-7.77-13.976c0-4.959,4.037-8.996,8.998-8.996c4.959,0,8.996,4.037,8.996,8.996
			C24.889,18.477,20.277,23.758,17.31,26.536z"/>
	</g>
</g>
<g>
</g>
<g>
</g>
<g>
</g>
<g>
</g>
<g>
</g>
<g>
</g>
<g>
</g>
<g>
</g>
<g>
</g>
<g>
</g>
<g>
</g>
<g>
</g>
<g>
</g>
<g>
</g>
<g>
</g>
</svg>
