<?xml version="1.0" encoding="iso-8859-1"?>
<!-- Generator: Adobe Illustrator 19.0.0, SVG Export Plug-In . SVG Version: 6.00 Build 0)  -->
<svg version="1.1" id="Capa_1" xmlns="http://www.w3.org/2000/svg" xmlns:xlink="http://www.w3.org/1999/xlink" x="0px" y="0px"
	 viewBox="0 0 512 512" style="enable-background:new 0 0 512 512;" xml:space="preserve">
<g>
	<g>
		<path fill="#BF0603" d="M381.418,102.854h-11.877V82.908h28.512c5.522,0,10-4.478,10-10V10c0-5.523-4.478-10-10-10H113.947
			c-5.523,0-10,4.477-10,10v62.908c0,5.522,4.477,10,10,10h28.512v19.945h-11.877c-29.413,0-53.342,23.929-53.342,53.342v302.463
			c0,29.413,23.929,53.342,53.342,53.342h250.836c29.413,0,53.342-23.929,53.342-53.342V156.195
			C434.76,126.782,410.831,102.854,381.418,102.854z M344,20h44.053v42.908h-28.512H344V20z M349.541,82.908v19.945H162.459V82.908
			H349.541z M266,20h58v42.908h-58V20z M188,20h58v42.908h-58V20z M123.947,62.908V20H168v42.908h-15.541H123.947z M414.76,458.658
			L414.76,458.658c0,18.385-14.957,33.342-33.342,33.342H130.582c-18.385,0-33.342-14.957-33.342-33.342V156.195
			c0-18.385,14.957-33.342,33.342-33.342h21.877h207.082h21.877c18.385,0,33.342,14.957,33.342,33.342V458.658z"/>
	</g>
</g>
<g>
	<g>
		<path fill="#BF0603" d="M358.324,195.468H153.676c-5.522,0-10,4.477-10,10v204.647c0,5.522,4.478,10,10,10h204.648c5.523,0,10-4.478,10-10
			V205.468C368.324,199.945,363.847,195.468,358.324,195.468z M163.676,400.115V215.468h184.648v184.647H163.676z"/>
	</g>
</g>
<g>
	<g>
		<path fill="#BF0603" d="M320.608,243.184c-20.046-20.044-52.662-20.045-72.71,0l-28.253,28.253l-28.254,28.254
			c-20.046,20.046-20.046,52.663,0,72.709c10.024,10.022,23.19,15.034,36.356,15.034c13.165,0,26.331-5.012,36.354-15.034
			l28.253-28.253l28.254-28.254C340.654,295.847,340.654,263.23,320.608,243.184z M249.959,358.256
			c-12.247,12.247-32.176,12.249-44.425,0c-12.248-12.247-12.248-32.175,0-44.423l21.183-21.183l44.424,44.425L249.959,358.256z
			 M306.466,301.75l-21.183,21.183l-44.424-44.425l21.182-21.182c12.248-12.247,32.177-12.249,44.425,0
			C318.714,269.574,318.714,289.502,306.466,301.75z"/>
	</g>
</g>
<g>
	<g>
		<path fill="#BF0603" d="M367.269,158.229c-0.13-0.64-0.319-1.27-0.569-1.87s-0.561-1.18-0.92-1.73c-0.37-0.54-0.78-1.061-1.25-1.52
			c-2.32-2.319-5.78-3.38-9.021-2.73c-0.64,0.13-1.27,0.32-1.87,0.57c-0.6,0.25-1.18,0.56-1.729,0.92
			c-0.54,0.37-1.061,0.779-1.521,1.239c-0.46,0.46-0.88,0.98-1.24,1.52c-0.359,0.55-0.67,1.13-0.92,1.73
			c-0.25,0.601-0.439,1.23-0.569,1.87c-0.13,0.65-0.2,1.301-0.2,1.96c0,0.65,0.07,1.311,0.2,1.95
			c0.13,0.642,0.319,1.272,0.569,1.872c0.25,0.6,0.561,1.18,0.92,1.73c0.36,0.54,0.78,1.06,1.24,1.52
			c0.46,0.46,0.98,0.88,1.521,1.24c0.55,0.359,1.13,0.67,1.729,0.92c0.601,0.25,1.23,0.439,1.87,0.57
			c0.65,0.13,1.3,0.199,1.96,0.199c2.63,0,5.2-1.069,7.061-2.93c0.47-0.46,0.88-0.979,1.25-1.52c0.359-0.551,0.67-1.131,0.92-1.73
			c0.25-0.6,0.439-1.229,0.569-1.87c0.13-0.64,0.2-1.3,0.2-1.95C367.469,159.53,367.399,158.879,367.269,158.229z"/>
	</g>
</g>
<g>
	<g>
		<path fill="#BF0603" d="M315.884,150.186H154.535c-5.523,0-10,4.478-10,10c0,5.522,4.478,10,10,10h161.349c5.523,0,10-4.478,10-10
			C325.884,154.664,321.407,150.186,315.884,150.186z"/>
	</g>
</g>
<g>
	<g>
		<path fill="#BF0603" d="M164.34,453.439c-0.13-0.629-0.32-1.259-0.57-1.87c-0.25-0.6-0.559-1.18-0.92-1.72c-0.37-0.55-0.78-1.06-1.25-1.52
			c-0.46-0.471-0.97-0.88-1.51-1.25c-0.55-0.36-1.13-0.67-1.73-0.92c-0.6-0.25-1.23-0.44-1.869-0.57c-1.29-0.26-2.62-0.26-3.91,0
			c-0.641,0.13-1.27,0.32-1.87,0.57c-0.601,0.25-1.18,0.56-1.73,0.92c-0.54,0.37-1.06,0.779-1.52,1.25
			c-0.46,0.46-0.88,0.97-1.24,1.52c-0.36,0.54-0.67,1.12-0.92,1.72c-0.25,0.61-0.44,1.24-0.57,1.87
			c-0.13,0.65-0.199,1.31-0.199,1.96c0,0.65,0.069,1.311,0.199,1.95c0.13,0.641,0.32,1.27,0.57,1.87c0.25,0.6,0.56,1.19,0.92,1.73
			c0.36,0.55,0.78,1.06,1.24,1.52c0.46,0.46,0.979,0.88,1.52,1.24c0.551,0.359,1.13,0.67,1.73,0.92c0.6,0.25,1.229,0.439,1.87,0.57
			c0.649,0.13,1.3,0.199,1.95,0.199c0.659,0,1.309-0.069,1.96-0.199c0.64-0.131,1.27-0.32,1.869-0.57
			c0.601-0.25,1.181-0.561,1.73-0.92c0.54-0.36,1.05-0.78,1.51-1.24c0.47-0.46,0.88-0.97,1.25-1.52c0.36-0.54,0.67-1.131,0.92-1.73
			s0.441-1.229,0.57-1.87c0.13-0.64,0.2-1.3,0.2-1.95C164.54,454.75,164.47,454.089,164.34,453.439z"/>
	</g>
</g>
<g>
	<g>
		<path fill="#BF0603" d="M357.465,445.397H196.116c-5.522,0-10,4.478-10,10c0,5.522,4.478,10,10,10h161.349c5.522,0,10-4.478,10-10
			C367.465,449.875,362.987,445.397,357.465,445.397z"/>
	</g>
</g>
<g>
</g>
<g>
</g>
<g>
</g>
<g>
</g>
<g>
</g>
<g>
</g>
<g>
</g>
<g>
</g>
<g>
</g>
<g>
</g>
<g>
</g>
<g>
</g>
<g>
</g>
<g>
</g>
<g>
</g>
</svg>
