<?xml version="1.0" encoding="iso-8859-1"?>
<!-- Generator: Adobe Illustrator 19.0.0, SVG Export Plug-In . SVG Version: 6.00 Build 0)  -->
<svg version="1.1" id="Layer_1" xmlns="http://www.w3.org/2000/svg" xmlns:xlink="http://www.w3.org/1999/xlink" x="0px" y="0px"
	 viewBox="0 0 512 512" style="enable-background:new 0 0 512 512;" xml:space="preserve">
<g transform="translate(0 -1)">
	<g>
		<g>
			<path d="M477.661,9.825h-36.281h-17.655h-52.966h-17.655h-52.966h-17.655h-52.966h-17.655h-52.966h-17.655H88.276H70.621H34.348
				C15.404,9.825,0,25.238,0,44.174v71.583c0,12.42,5.314,24.346,14.583,32.733c8.148,7.362,18.759,11.405,29.652,11.405
				c1.465,0,2.94-0.071,4.414-0.221c12.456-1.262,23.261-8.218,30.473-18.097c8.033,11.052,20.966,18.317,35.637,18.317
				c14.486,0,27.26-7.106,35.31-17.92c8.051,10.814,20.824,17.92,35.31,17.92c14.486,0,27.26-7.106,35.31-17.92
				c8.051,10.814,20.824,17.92,35.31,17.92s27.26-7.106,35.31-17.92c8.051,10.814,20.824,17.92,35.31,17.92
				c14.486,0,27.26-7.106,35.31-17.92c8.051,10.814,20.824,17.92,35.31,17.92c14.468,0,27.215-7.089,35.266-17.876
				c1.721,2.313,3.628,4.502,5.8,6.471c8.148,7.362,18.759,11.405,29.652,11.405c1.465,0,2.94-0.071,4.414-0.221
				C494.592,157.423,512,137.41,512,114.097V44.174C512,25.238,496.596,9.825,477.661,9.825z M70.621,114.097
				c0,14.362-10.434,26.668-23.746,28.01c-7.486,0.786-14.813-1.615-20.445-6.718c-5.579-5.041-8.775-12.2-8.775-19.633V44.174
				c0-9.207,7.486-16.693,16.693-16.693h36.273V114.097z M211.862,115.756c0,14.61-11.882,26.483-26.483,26.483
				c-14.601,0-26.483-11.873-26.483-26.483V27.481h52.966V115.756z M353.103,115.756c0,14.61-11.882,26.483-26.483,26.483
				s-26.483-11.873-26.483-26.483V27.481h52.966V115.756z M494.345,114.097c0,14.362-10.434,26.668-23.746,28.01
				c-7.468,0.786-14.813-1.615-20.445-6.718c-5.579-5.041-8.775-12.2-8.775-19.633V27.481h36.281
				c9.198,0,16.684,7.486,16.684,16.693V114.097z"/>
			<path d="M291.155,257.002h-35.151v94.623C273.094,342.135,289.389,306.19,291.155,257.002z"/>
			<path d="M88.276,504.175h105.931V398.244h-17.655c-4.873,0-8.828-3.946-8.828-8.828c0-4.882,3.955-8.828,8.828-8.828h17.655
				V257.002H88.276V504.175z M105.931,283.485c0-4.882,3.955-8.828,8.828-8.828h52.966c4.873,0,8.828,3.946,8.828,8.828v52.966
				c0,4.882-3.955,8.828-8.828,8.828h-52.966c-4.873,0-8.828-3.946-8.828-8.828V283.485z"/>
			<rect x="123.586" y="292.313" width="35.31" height="35.31"/>
			<path d="M270.59,362.89c16.146,12.968,27.366,39.186,29.175,70.665h35.681v-26.483h-17.655c-4.873,0-8.828-3.946-8.828-8.828
				s3.955-8.828,8.828-8.828h52.966c4.873,0,8.828,3.946,8.828,8.828s-3.955,8.828-8.828,8.828h-17.655v26.483h35.681
				c1.81-31.479,13.03-57.697,29.175-70.665c-21.433-17.081-36.564-57.203-38.206-105.887h-70.947
				C307.154,305.687,292.024,345.809,270.59,362.89z"/>
			<path d="M256,374.339v59.215h26.2C280.258,403.664,268.606,381.595,256,374.339z"/>
			<path d="M432.552,351.623V257H397.4C399.157,306.197,415.453,342.134,432.552,351.623z"/>
			<path d="M26.483,495.347c0,4.882,3.955,8.828,8.828,8.828h35.31v-256c0-4.882,3.955-8.828,8.828-8.828h123.586
				c4.873,0,8.828,3.946,8.828,8.828v256H476.69c4.873,0,8.828-3.946,8.828-8.828V221.692H26.483V495.347z M238.345,248.175
				c0-4.882,3.955-8.828,8.828-8.828h52.966h88.276h52.966c4.873,0,8.828,3.946,8.828,8.828v194.207
				c0,4.882-3.955,8.828-8.828,8.828h-44.138H291.31h-44.138c-4.873,0-8.828-3.946-8.828-8.828V248.175z"/>
			<path d="M406.353,433.554h26.2v-59.215C419.948,381.595,408.295,403.664,406.353,433.554z"/>
			<path d="M485.515,174.932c-3.655,1.13-7.459,1.916-11.361,2.313c-2.083,0.203-4.149,0.309-6.197,0.309
				c-12.765,0-25.106-3.911-35.443-11.158c-10.214,7.221-22.413,11.158-35.275,11.158c-12.879,0-25.088-3.946-35.31-11.176
				c-10.213,7.23-22.422,11.176-35.31,11.176c-12.879,0-25.088-3.946-35.31-11.176c-10.214,7.23-22.422,11.176-35.31,11.176
				c-12.879,0-25.088-3.946-35.31-11.176c-10.214,7.23-22.422,11.176-35.31,11.176c-12.879,0-25.088-3.946-35.31-11.176
				c-10.214,7.23-22.422,11.176-35.31,11.176c-12.818,0-25.238-4.096-35.558-11.414c-8.527,6.17-18.432,10.055-28.778,11.105
				c-2.074,0.203-4.14,0.309-6.188,0.309c-6.073,0-12.041-0.918-17.752-2.631v29.113h459.034V174.932z"/>
		</g>
	</g>
</g>
<g>
</g>
<g>
</g>
<g>
</g>
<g>
</g>
<g>
</g>
<g>
</g>
<g>
</g>
<g>
</g>
<g>
</g>
<g>
</g>
<g>
</g>
<g>
</g>
<g>
</g>
<g>
</g>
<g>
</g>
</svg>
