<?xml version="1.0" encoding="iso-8859-1"?>
<!-- Generator: Adobe Illustrator 19.0.0, SVG Export Plug-In . SVG Version: 6.00 Build 0)  -->
<svg version="1.1" id="Layer_1" xmlns="http://www.w3.org/2000/svg" xmlns:xlink="http://www.w3.org/1999/xlink" x="0px" y="0px"
	 viewBox="0 0 512 512" style="enable-background:new 0 0 512 512;" xml:space="preserve">
<g>
	<g>
		<path d="M503.07,417.514h-19.777c2.706-66.718-6.274-131.592-26.743-192.972c-1.562-4.677-6.616-7.207-11.297-5.646
			c-4.678,1.561-7.206,6.618-5.645,11.297c19.856,59.537,28.524,122.516,25.811,187.321h-28.48
			c-0.398-27.909-4.36-91.473-29.386-156.586c1.241-10.957,5.211-57.423-7.76-119.411c8.754,15.067,19.008,34.816,28.666,58.53
			c1.86,4.566,7.07,6.762,11.639,4.902c4.568-1.861,6.763-7.072,4.902-11.639c-26.545-65.173-57.37-102.256-60.765-106.234
			c-2.106-2.673-5.609-3.964-9.029-3.174c-4.05,0.937-6.918,4.544-6.918,8.7c0,1.048,0.187,2.083,0.539,3.054
			c17.514,51.9,21.802,98.249,22.252,128.545c-14.985-28.961-33.363-54.441-54.921-76.009c-3.414-3.486-9.005-3.582-12.545-0.196
			c-1.831,1.752-2.753,4.096-2.754,6.446c0,1.012,0.17,2.025,0.512,2.992c1.256,3.87,15.813,49.378,24.39,104.118
			c10.91,69.628,7.317,123.356-10.342,155.961h-69.28c-2.378-32.579-6.845-63.777-13.343-92.849
			c-1.069-36.96-5.783-100.546-23.722-167.96c6.873,11.507,14.307,24.831,21.853,39.836
			c30.414,60.489,51.304,124.814,62.089,191.188c0.713,4.383,4.502,7.499,8.805,7.499c0.475,0,0.958-0.038,1.443-0.117
			c4.868-0.791,8.173-5.378,7.382-10.247c-11.077-68.17-32.53-134.23-63.762-196.346c-29.933-59.531-57.606-92.751-58.768-94.135
			c-2.814-3.349-7.638-4.169-11.4-1.934c-3.76,2.234-5.349,6.864-3.752,10.937c19.148,48.83,29.62,100,35.346,142.387
			c-23.115-56.532-52.317-94.585-75.876-118.552c-36.282-36.905-67.114-49.445-68.409-49.961c-3.935-1.568-8.433-0.152-10.764,3.385
			c-2.33,3.54-1.853,8.229,1.144,11.226c55.509,55.509,73.883,142.338,79.522,205.406c2.716,30.377,2.818,58.319,2.074,80.154
			C98.841,216.677,16.711,204.349,12.955,203.873c-3.639-0.463-7.189,1.349-8.954,4.565c-1.763,3.216-1.381,7.182,0.963,10.003
			c32.018,38.513,53.455,82.24,63.717,129.967c1.036,4.822,5.789,7.894,10.607,6.854c4.822-1.037,7.891-5.786,6.854-10.608
			c-8.541-39.729-24.374-76.821-47.197-110.66c29.735,18.986,76.907,66.409,111.243,183.52H92.973
			c0.31-10.142,0.132-23.41-1.442-38.807c-0.501-4.907-4.896-8.486-9.792-7.975c-4.907,0.501-8.478,4.885-7.975,9.792
			c1.511,14.778,1.655,27.432,1.341,36.991H8.93c-4.933,0-8.93,3.998-8.93,8.93c0,4.932,3.997,8.93,8.93,8.93h494.14
			c4.933,0,8.93-3.998,8.93-8.93C512,421.514,508.003,417.514,503.07,417.514z M171.329,417.515
			c1.867-18.483,5.396-65.405,0.42-121.45c-3.717-41.874-11.462-80.059-23.017-113.49c-7.719-22.337-17.165-42.586-28.253-60.608
			c6.077,5.09,12.538,10.987,19.212,17.775c31.464,32.01,73.572,90.601,95.488,187.956c6.324,28.079,10.691,58.261,13.051,89.817
			H171.329z M355.278,417.515c28.477-64.736,8.499-169.886-5.9-226.686c16.253,21.87,29.89,46.794,40.718,74.478
			c24.681,63.083,28.584,125.052,28.98,152.208H355.278z"/>
	</g>
</g>
<g>
</g>
<g>
</g>
<g>
</g>
<g>
</g>
<g>
</g>
<g>
</g>
<g>
</g>
<g>
</g>
<g>
</g>
<g>
</g>
<g>
</g>
<g>
</g>
<g>
</g>
<g>
</g>
<g>
</g>
</svg>
