<?xml version="1.0" encoding="iso-8859-1"?>
<!-- Generator: Adobe Illustrator 19.0.0, SVG Export Plug-In . SVG Version: 6.00 Build 0)  -->
<svg version="1.1" id="Layer_1" xmlns="http://www.w3.org/2000/svg" xmlns:xlink="http://www.w3.org/1999/xlink" x="0px" y="0px"
	 viewBox="0 0 512 512" style="enable-background:new 0 0 512 512;" xml:space="preserve">
<g>
	<g>
		<path d="M486.4,196.267H384v-85.333c0-4.713-3.821-8.533-8.533-8.533H332.8V59.733c0-4.713-3.821-8.533-8.533-8.533h-59.733V0
			h-17.067v51.2h-59.733c-4.713,0-8.533,3.821-8.533,8.533V102.4h-42.667c-4.713,0-8.533,3.821-8.533,8.533v85.333H25.6
			c-4.713,0-8.533,3.821-8.533,8.533v298.667c0,4.713,3.821,8.533,8.533,8.533h110.933h238.933H486.4
			c4.713,0,8.533-3.821,8.533-8.533V204.8C494.933,200.087,491.113,196.267,486.4,196.267z M128,494.933H34.133v-281.6H128V494.933z
			 M196.267,68.267h119.467V102.4H196.267V68.267z M366.933,204.8v290.133H145.067V204.8v-85.333h42.667h136.533h42.667V204.8z
			 M477.867,494.933H384v-281.6h93.867V494.933z"/>
	</g>
</g>
<g>
	<g>
		<path d="M230.4,409.6h-59.733c-4.713,0-8.533,3.821-8.533,8.533v51.2c0,4.713,3.821,8.533,8.533,8.533H230.4
			c4.713,0,8.533-3.821,8.533-8.533v-51.2C238.933,413.421,235.113,409.6,230.4,409.6z M221.867,460.8H179.2v-34.133h42.667V460.8z"
			/>
	</g>
</g>
<g>
	<g>
		<path d="M230.4,324.267h-59.733c-4.713,0-8.533,3.821-8.533,8.533V384c0,4.713,3.821,8.533,8.533,8.533H230.4
			c4.713,0,8.533-3.821,8.533-8.533v-51.2C238.933,328.087,235.113,324.267,230.4,324.267z M221.867,375.467H179.2v-34.133h42.667
			V375.467z"/>
	</g>
</g>
<g>
	<g>
		<path d="M230.4,238.933h-59.733c-4.713,0-8.533,3.821-8.533,8.533v51.2c0,4.713,3.821,8.533,8.533,8.533H230.4
			c4.713,0,8.533-3.821,8.533-8.533v-51.2C238.933,242.754,235.113,238.933,230.4,238.933z M221.867,290.133H179.2V256h42.667
			V290.133z"/>
	</g>
</g>
<g>
	<g>
		<path d="M102.4,247.467H59.733c-4.713,0-8.533,3.821-8.533,8.533v42.667c0,4.713,3.821,8.533,8.533,8.533H102.4
			c4.713,0,8.533-3.821,8.533-8.533V256C110.933,251.287,107.113,247.467,102.4,247.467z M93.867,290.133h-25.6v-25.6h25.6V290.133z
			"/>
	</g>
</g>
<g>
	<g>
		<path d="M452.267,247.467H409.6c-4.713,0-8.533,3.821-8.533,8.533v42.667c0,4.713,3.821,8.533,8.533,8.533h42.667
			c4.713,0,8.533-3.821,8.533-8.533V256C460.8,251.287,456.979,247.467,452.267,247.467z M443.733,290.133h-25.6v-25.6h25.6V290.133
			z"/>
	</g>
</g>
<g>
	<g>
		<path d="M102.4,324.267H59.733c-4.713,0-8.533,3.821-8.533,8.533v42.667c0,4.713,3.821,8.533,8.533,8.533H102.4
			c4.713,0,8.533-3.821,8.533-8.533V332.8C110.933,328.087,107.113,324.267,102.4,324.267z M93.867,366.933h-25.6v-25.6h25.6
			V366.933z"/>
	</g>
</g>
<g>
	<g>
		<path d="M452.267,324.267H409.6c-4.713,0-8.533,3.821-8.533,8.533v42.667c0,4.713,3.821,8.533,8.533,8.533h42.667
			c4.713,0,8.533-3.821,8.533-8.533V332.8C460.8,328.087,456.979,324.267,452.267,324.267z M443.733,366.933h-25.6v-25.6h25.6
			V366.933z"/>
	</g>
</g>
<g>
	<g>
		<path d="M102.4,401.067H59.733c-4.713,0-8.533,3.821-8.533,8.533v42.667c0,4.713,3.821,8.533,8.533,8.533H102.4
			c4.713,0,8.533-3.821,8.533-8.533V409.6C110.933,404.888,107.113,401.067,102.4,401.067z M93.867,443.733h-25.6v-25.6h25.6
			V443.733z"/>
	</g>
</g>
<g>
	<g>
		<path d="M452.267,401.067H409.6c-4.713,0-8.533,3.821-8.533,8.533v42.667c0,4.713,3.821,8.533,8.533,8.533h42.667
			c4.713,0,8.533-3.821,8.533-8.533V409.6C460.8,404.888,456.979,401.067,452.267,401.067z M443.733,443.733h-25.6v-25.6h25.6
			V443.733z"/>
	</g>
</g>
<g>
	<g>
		<path d="M341.333,409.6H281.6c-4.713,0-8.533,3.821-8.533,8.533v51.2c0,4.713,3.821,8.533,8.533,8.533h59.733
			c4.713,0,8.533-3.821,8.533-8.533v-51.2C349.867,413.421,346.046,409.6,341.333,409.6z M332.8,460.8h-42.667v-34.133H332.8V460.8z
			"/>
	</g>
</g>
<g>
	<g>
		<path d="M341.333,324.267H281.6c-4.713,0-8.533,3.821-8.533,8.533V384c0,4.713,3.821,8.533,8.533,8.533h59.733
			c4.713,0,8.533-3.821,8.533-8.533v-51.2C349.867,328.087,346.046,324.267,341.333,324.267z M332.8,375.467h-42.667v-34.133H332.8
			V375.467z"/>
	</g>
</g>
<g>
	<g>
		<path d="M341.333,238.933H281.6c-4.713,0-8.533,3.821-8.533,8.533v51.2c0,4.713,3.821,8.533,8.533,8.533h59.733
			c4.713,0,8.533-3.821,8.533-8.533v-51.2C349.867,242.754,346.046,238.933,341.333,238.933z M332.8,290.133h-42.667V256H332.8
			V290.133z"/>
	</g>
</g>
<g>
	<g>
		<polygon points="264.533,170.667 264.533,136.533 247.467,136.533 247.467,170.667 213.333,170.667 213.333,187.733 
			247.467,187.733 247.467,221.867 264.533,221.867 264.533,187.733 298.667,187.733 298.667,170.667 		"/>
	</g>
</g>
<g>
</g>
<g>
</g>
<g>
</g>
<g>
</g>
<g>
</g>
<g>
</g>
<g>
</g>
<g>
</g>
<g>
</g>
<g>
</g>
<g>
</g>
<g>
</g>
<g>
</g>
<g>
</g>
<g>
</g>
</svg>
