<?xml version='1.0' encoding='iso-8859-1'?>
<svg version="1.1" xmlns="http://www.w3.org/2000/svg" viewBox="0 0 409.221 409.221" xmlns:xlink="http://www.w3.org/1999/xlink" enable-background="new 0 0 409.221 409.221">
  <path d="m88.385,249.282h-22.93c-12.42,0-22.525,10.104-22.525,22.525v60.216c0,12.421 10.104,22.525 22.525,22.525h22.93c12.421,0 22.526-10.104 22.526-22.525v-60.216c-1.42109e-14-12.42-10.105-22.525-22.526-22.525zm2.526,82.741c0,1.369-1.157,2.525-2.526,2.525h-22.93c-1.369,0-2.525-1.156-2.525-2.525v-60.216c0-1.369 1.156-2.525 2.525-2.525h22.93c1.369,0 2.526,1.156 2.526,2.525v60.216zm224.43-77.645l29.267,52.009v-47.104c0-5.522 4.478-10 10-10s10,4.478 10,10v85.267c0,4.547-3.067,8.521-7.465,9.674-0.844,0.221-1.695,0.327-2.536,0.327-3.547,0-6.912-1.895-8.714-5.097l-29.267-52.009v47.104c0,5.522-4.478,10-10,10s-10-4.478-10-10v-85.267c0-4.547 3.067-8.521 7.465-9.674 4.404-1.151 9.021,0.809 11.25,4.77zm83.88-59.768h-76.975l-117.998-189.888c-1.82-2.928-5.02-4.713-8.468-4.722-0.009,0-0.018,0-0.026,0-3.438,0-6.636,1.767-8.466,4.679l-119.389,189.931h-57.899c-5.523,0-10,4.478-10,10v194.61c0,5.522 4.477,10 10,10h389.221c5.522,0 10-4.478 10-10v-194.61c0-5.522-4.478-10-10-10zm-203.516-165.742l102.994,165.742h-207.178l104.184-165.742zm193.516,360.353h-369.221v-174.611h53.252c0.108,0.002 0.216,0.002 0.325,0h242.953c0.109,0.003 0.221,0.003 0.332,0h72.358v174.611zm-217.333-139.939h-34.39c-5.523,0-10,4.478-10,10l-.001,85.267c0,5.522 4.477,10 10,10 5.522,0 10-4.478 10-10v-20.892h13.99c18.743,0 33.991-15.248 33.991-33.99v-16.796c0.001-13.007-10.582-23.589-23.59-23.589zm3.591,40.385c0,7.714-6.276,13.99-13.991,13.99h-13.99v-34.375h24.39c1.946,0 3.59,1.644 3.59,3.589v16.796zm56.585-20.385v22.634h14.002c5.522,0 10,4.478 10,10s-4.478,10-10,10h-14.002v22.633h37.981c5.522,0 10,4.478 10,10s-4.478,10-10,10h-47.981c-5.522,0-10-4.478-10-10v-85.267c0-5.522 4.478-10 10-10h47.981c5.522,0 10,4.478 10,10s-4.478,10-10,10h-37.981z"/>
</svg>
