<?xml version="1.0" encoding="iso-8859-1"?>
<!-- Generator: Adobe Illustrator 16.0.0, SVG Export Plug-In . SVG Version: 6.00 Build 0)  -->
<!DOCTYPE svg PUBLIC "-//W3C//DTD SVG 1.1//EN" "http://www.w3.org/Graphics/SVG/1.1/DTD/svg11.dtd">
<svg version="1.1" id="Capa_1" xmlns="http://www.w3.org/2000/svg" xmlns:xlink="http://www.w3.org/1999/xlink" x="0px" y="0px"
	 width="460.305px" height="460.305px" viewBox="0 0 460.305 460.305" style="enable-background:new 0 0 460.305 460.305;"
	 xml:space="preserve">
<g>
	<path d="M359.917,140.322c8.059-13.801,12.681-29.854,12.681-46.989C372.598,41.786,330.811,0,279.264,0
		c-32.941,0-61.896,17.068-78.507,42.842c-8.526-2.915-17.66-4.52-27.174-4.52c-46.392,0-84,37.608-84,84
		c0,8.914,1.4,17.499,3.973,25.56c-11.507,14.373-18.403,32.596-18.403,52.44c0,46.392,37.608,84,84,84
		c17.544,0,33.822-5.39,47.289-14.592l-16.289,190.574h80L253.863,269.73c13.467,9.203,29.745,14.592,47.289,14.592
		c46.392,0,84-37.608,84-84C385.152,176.812,375.482,155.569,359.917,140.322z"/>
</g>
<g>
</g>
<g>
</g>
<g>
</g>
<g>
</g>
<g>
</g>
<g>
</g>
<g>
</g>
<g>
</g>
<g>
</g>
<g>
</g>
<g>
</g>
<g>
</g>
<g>
</g>
<g>
</g>
<g>
</g>
</svg>
