<?xml version="1.0" encoding="iso-8859-1"?>
<!-- Generator: Adobe Illustrator 19.0.0, SVG Export Plug-In . SVG Version: 6.00 Build 0)  -->
<svg xmlns="http://www.w3.org/2000/svg" xmlns:xlink="http://www.w3.org/1999/xlink" version="1.1" id="Layer_1" x="0px" y="0px" viewBox="0 0 512 512" style="enable-background:new 0 0 512 512;" xml:space="preserve" width="512px" height="512px">
<g>
	<g>
		<path d="M423.262,155.307l-34.133-25.6C387.644,128.597,385.852,128,384,128H282.906l5.299-37.043    C299.776,81.562,307.2,67.243,307.2,51.2C307.2,22.963,284.237,0,256,0c-28.228,0-51.2,22.963-51.2,51.2    c0,16.043,7.433,30.362,19.004,39.757l6.596,46.174v76.203H128c-1.843,0-3.635,0.597-5.12,1.707l-34.133,25.6    c-2.15,1.613-3.413,4.139-3.413,6.827s1.263,5.214,3.413,6.827l34.133,25.6c1.485,1.109,3.277,1.707,5.12,1.707h8.533    c51.763,0,93.867,42.112,93.867,93.867V460.8c-23.518,0-42.667,19.14-42.667,42.667c0,4.71,3.823,8.533,8.533,8.533h119.467    c4.719,0,8.533-3.823,8.533-8.533c0-23.526-19.14-42.667-42.667-42.667V290.133c0-51.755,42.112-93.867,93.867-93.867H384    c1.852,0,3.644-0.597,5.129-1.707l34.133-25.6c2.15-1.613,3.405-4.139,3.405-6.827S425.412,156.919,423.262,155.307z     M230.4,316.621c-8.892-14.148-20.864-26.121-35.012-35.021H230.4V316.621z M230.4,264.533h-99.55l-22.758-17.067L130.85,230.4    h99.55V264.533z M265.668,128H246.34l-3.925-27.435c0.307,0.085,0.631,0.111,0.93,0.188c1.596,0.41,3.217,0.734,4.855,0.99    c0.495,0.077,0.981,0.162,1.476,0.222c2.082,0.256,4.181,0.435,6.323,0.435c2.15,0,4.25-0.179,6.332-0.435    c0.495-0.06,0.981-0.145,1.468-0.222c1.647-0.256,3.268-0.58,4.864-0.99c0.299-0.077,0.623-0.102,0.93-0.188L265.668,128z     M281.6,231.287v-35.021h35.021C302.473,205.167,290.5,217.139,281.6,231.287z M381.158,179.2H281.6v-34.133h99.558l22.758,17.067    L381.158,179.2z" fill="#D80027"/>
	</g>
</g>
<g>
</g>
<g>
</g>
<g>
</g>
<g>
</g>
<g>
</g>
<g>
</g>
<g>
</g>
<g>
</g>
<g>
</g>
<g>
</g>
<g>
</g>
<g>
</g>
<g>
</g>
<g>
</g>
<g>
</g>
</svg>
